<svg data-v-6805eed4="" version="1.0" xmlns="http://www.w3.org/2000/svg" xmlns:xlink="http://www.w3.org/1999/xlink" width="100%" height="100%" viewBox="0 0 340.000000 250.000000" preserveAspectRatio="xMidYMid meet" color-interpolation-filters="sRGB" style="margin: auto;" id="svg-test">   <g data-v-6805eed4="" fill="#333" class="icon-text-wrapper icon-svg-group iconsvg" transform="translate(48.24000549316406,91.58758926391602)"><g class="iconsvg-imagesvg" transform="translate(0,0)"><g><rect fill="#333" fill-opacity="0" stroke-width="2" x="0" y="0" width="60" height="66.82481873767918" class="image-rect"></rect> <svg x="0" y="0" width="60" height="66.82481873767918" filtersec="colorsb7106753721" class="image-svg-svg primary" style="overflow: visible;"><svg xmlns="http://www.w3.org/2000/svg" viewBox="0 -0.0028373277746140957 89.81000518798828 100.02556610107422"><title>资源 134</title><path d="M64.35 47.87c-.58 0-1.17 0-1.74.05.34.73.66 1.46 1 2.2a64.86 64.86 0 0 1 5.14 25.46 65.77 65.77 0 0 1-1.34 13.26L84.44 79a11.89 11.89 0 0 0 5.37-9.28v-10a33.48 33.48 0 0 0-25.46-11.85zM21.49 69a9.3 9.3 0 0 1 9.3-9.31 9.07 9.07 0 0 1 1.66.15 39.44 39.44 0 0 1 4.73-5.73 38.15 38.15 0 0 1 15.09-9.32 58 58 0 0 0-41.94-26.64L5.38 21A11.9 11.9 0 0 0 0 30.28v39.44A11.9 11.9 0 0 0 5.38 79l22 12.68a38.86 38.86 0 0 1-1.19-14.63 9.3 9.3 0 0 1-4.7-8.05z" fill="#275cde"></path><path d="M84.44 21L50.28 1.28a11.86 11.86 0 0 0-10.73 0L20.29 12.4a64 64 0 0 1 8.49 2.92 65.23 65.23 0 0 1 20.79 14 65.61 65.61 0 0 1 10.52 13.76 37.62 37.62 0 0 1 4.26-.24 38.33 38.33 0 0 1 25.46 9.64v-22.2A11.92 11.92 0 0 0 84.44 21z" fill="#0a2183"></path><path d="M37 62.08a9.31 9.31 0 0 1-5.95 16.2c-.08 1-.13 2-.13 3a33.2 33.2 0 0 0 3.26 14.39l5.33 3.07a11.84 11.84 0 0 0 10.72 0l7.87-4.54a57.76 57.76 0 0 0-3.27-44.94A33.46 33.46 0 0 0 37 62.08z" fill="#01cfff"></path></svg></svg> <!----></g></g> <g transform="translate(67,21.947410583496094)"><g data-gra="path-name" fill-rule="" class="tp-name iconsvg-namesvg"><g transform="scale(1)"><g><path d="M15.98-13.53L15.98-13.53 15.98-11.29Q15.98-5.42 16 2.69L16 2.69Q15.98 2.69 15.98 2.71L15.98 2.71Q14.38 2.69 13.52 2.69L13.52 2.69 12.33 2.69Q12.04 0.17 11.14-7.71L11.14-7.71 6.41-6.81 7.4 2.71Q5.09 2.69 3.53 2.69L3.53 2.69 1.74 2.69 1.74-13.52 5.7-13.52 5.7-13.5 5.8-12.4Q5.82-12.42 5.84-12.42L5.84-12.42Q15.88-13.53 15.98-13.53ZM19.47 2.68L19.47-13.38 19.49-13.38Q25.12-13.38 33.65-13.36L33.65-13.36 33.65-13.34Q33.65-10.79 33.6-3.07L33.6-3.07 24.86-3.07 25.14-1.18 26.6-1.18Q29.57-1.18 33.65-1.16L33.65-1.16 33.65 2.68 19.47 2.68ZM24.17-9.22L24.17-9.22 24.48-6.53 24.5-6.53Q24.6-6.53 29.52-6.79L29.52-6.79Q28.93-9.52 28.87-9.71L28.87-9.71Q24.88-9.33 24.17-9.22ZM42.09-18.33L42.09-18.33 46.98-18.33Q47.22-13.5 47.22-13.39L47.22-13.39 52.88-13.39 52.88-8.89Q52.88-8.86 52.85-8.86L52.85-8.86Q52.73-8.86 47.6-8.44L47.6-8.44Q47.6-8.34 47.9-2.64L47.9-2.64Q48.59-2.74 52.21-3.21L52.21-3.21 52.21 2.64 40.91 2.64 40.9 2.62 40.91 2.59 41.5-7.92 41.49-7.92 37.14-7.54 37.13-7.57 37.13-13.38Q37.13-13.39 37.16-13.39L37.16-13.39 41.87-13.39Q41.87-13.5 42.09-18.33ZM56.36-12.79L56.36-20.22 72.31-20.22 72.31-14.54Q67.18-13.97 67.13-13.97L67.13-13.97Q67.75 2 67.77 2.68L67.77 2.68 60.67 2.68 60.67 2.66Q60.67 2.29 61.33-13.32L61.33-13.32Q56.44-12.77 56.37-12.75L56.37-12.75 56.36-12.79ZM75.78 2.64L75.78-18.38 80.31-18.38 80.31-18.36Q80.71-13.66 80.75-13.36L80.75-13.36 89.96-13.36 89.96 2.64 85.37 2.64Q85.32 2.64 85.28 2.05L85.28 2.05 84.17-8.01Q83.81-7.94 81.34-7.44L81.34-7.44 81.34-7.44 82.23 2.64 75.78 2.64ZM93.45-13.43L93.45-13.43Q94.46-13.41 95.01-13.41L95.01-13.41 97.11-13.41Q97.24-12.28 98.31-3.16L98.31-3.16 103.04-4.08 102.05-13.43Q103.21-13.41 103.82-13.41L103.82-13.41 107.69-13.41 107.69 2.62 103.73 2.62 103.73 2.61 103.63 1.53Q93.64 2.64 93.45 2.64L93.45 2.64 93.45 0.8Q93.45-5.28 93.43-13.41L93.43-13.41Q93.45-13.41 93.45-13.43ZM125.41-13.53L125.41-13.53 125.41-11.29Q125.41-5.42 125.43 2.69L125.43 2.69Q125.41 2.69 125.41 2.71L125.41 2.71Q123.82 2.69 122.95 2.69L122.95 2.69 121.77 2.69Q121.47 0.17 120.57-7.71L120.57-7.71 115.84-6.81 116.83 2.71Q114.52 2.69 112.96 2.69L112.96 2.69 111.17 2.69 111.17-13.52 115.13-13.52 115.13-13.5 115.23-12.4Q115.25-12.42 115.27-12.42L115.27-12.42Q125.31-13.53 125.41-13.53ZM142.96-18.33L142.91 2.69 138.6 2.69Q138.51 2 138.51 1.91L138.51 1.91 138.51 1.91 128.91 2.69 128.91-13.32 128.92-13.36Q132.35-13.34 134.59-13.34L134.59-13.34 136.86-13.34Q136.53-18.17 136.5-18.33L136.5-18.33 142.96-18.33ZM134.48-8.63L134.48-8.63 133.89-3.18 138.03-2.97 138.03-2.99Q138.41-5.39 138.9-8.25L138.9-8.25 138.88-8.25Q138.79-8.25 134.48-8.63ZM146.44 2.68L146.44-13.38 146.45-13.38Q152.08-13.38 160.61-13.36L160.61-13.36 160.61-13.34Q160.61-10.79 160.56-3.07L160.56-3.07 151.82-3.07 152.1-1.18 153.56-1.18Q156.53-1.18 160.61-1.16L160.61-1.16 160.61 2.68 146.44 2.68ZM151.13-9.22L151.13-9.22 151.44-6.53 151.46-6.53Q151.56-6.53 156.48-6.79L156.48-6.79Q155.89-9.52 155.83-9.71L155.83-9.71Q151.84-9.33 151.13-9.22ZM164.09 2.69L164.09-13.36 168.27-13.36Q168.27-13.31 168.48-11.27L168.48-11.27 178.26-12.56 178.26-8.29Q169.4-6.06 169.06-5.98L169.06-5.98 169.96 2.69 164.09 2.69Z" transform="translate(-1.7400000095367432, 20.219999313354492)"></path></g> <!----> <!----> <!----> <!----> <!----> <!----> <!----></g></g> <!----></g></g><defs v-gra="od"></defs></svg>